<svg xmlns="http://www.w3.org/2000/svg" width="25" height="25" viewBox="0 0 25 25">
  <path id="calendar" d="M-28.783,426.717h-3.125a1.562,1.562,0,0,0-1.562-1.562,1.562,1.562,0,0,0-1.563,1.562h-6.25a1.563,1.563,0,0,0-1.562-1.562,1.563,1.563,0,0,0-1.563,1.562h-3.125a3.125,3.125,0,0,0-3.125,3.125V447.03a3.125,3.125,0,0,0,3.125,3.125h18.75a3.125,3.125,0,0,0,3.125-3.125V429.842A3.125,3.125,0,0,0-28.783,426.717Zm-18.75,3.125h3.125a1.563,1.563,0,0,0,1.563,1.563,1.563,1.563,0,0,0,1.562-1.563h6.25A1.563,1.563,0,0,0-33.47,431.4a1.562,1.562,0,0,0,1.562-1.563h3.125v3.125h-18.75Zm0,17.188V436.092h18.75V447.03Z" transform="translate(50.658 -425.155)" fill="#c3cbd3"/>
</svg>
