<svg xmlns="http://www.w3.org/2000/svg" xmlns:xlink="http://www.w3.org/1999/xlink" width="200" height="200" viewBox="0 0 200 200"><defs><style>.a{fill:#fe5a50;}.b{fill:#fff;}.c{filter:url(#a);}</style><filter id="a" x="0" y="0" width="200" height="200" filterUnits="userSpaceOnUse"><feOffset dy="8" input="SourceAlpha"/><feGaussianBlur stdDeviation="12.5" result="b"/><feFlood flood-color="#fe5a50" flood-opacity="0.42"/><feComposite operator="in" in2="b"/><feComposite in="SourceGraphic"/></filter></defs><g transform="translate(-742.5 -1692.5)"><g class="c" transform="matrix(1, 0, 0, 1, 742.5, 1692.5)"><rect class="a" width="125" height="125" rx="25" transform="translate(37.5 29.5)"/></g><path class="b" d="M872.04,1772.043H812.962v-9.026a2.982,2.982,0,0,1,2.954-3.011h5.908v4.514a1.477,1.477,0,1,0,2.954,0v-4.514h35.447v4.514a1.477,1.477,0,1,0,2.954,0v-4.514h5.908a2.982,2.982,0,0,1,2.954,3.011Zm0,39.12a2.982,2.982,0,0,1-2.954,3.009h-53.17a2.982,2.982,0,0,1-2.954-3.009v-36.11H872.04ZM869.086,1757h-5.908v-4.513a1.477,1.477,0,1,0-2.954,0V1757H824.778v-4.513a1.477,1.477,0,1,0-2.954,0V1757h-5.908a5.965,5.965,0,0,0-5.908,6.02v48.146a5.965,5.965,0,0,0,5.908,6.019h53.17a5.964,5.964,0,0,0,5.908-6.019v-48.146A5.964,5.964,0,0,0,869.086,1757ZM832.162,1791.6h-5.908v6.019h5.908Zm8.862,10.533h-5.908v6.019h5.908ZM823.3,1781.071h-5.908v6.018H823.3Zm0,21.064h-5.908v6.019H823.3Zm0-10.533h-5.908v6.019H823.3Zm17.723,0h-5.908v6.019h5.908Zm-8.862,10.533h-5.908v6.019h5.908Zm0-21.064h-5.908v6.018h5.908Zm35.447,10.531H861.7v6.019h5.908Zm0-10.531H861.7v6.018h5.908Zm-8.862,0h-5.908v6.018h5.908Zm-8.862,0h-5.908v6.018h5.908Zm0,21.064h-5.908v6.019h5.908Zm8.862-10.533h-5.908v6.019h5.908Zm-17.723-10.531h-5.908v6.018h5.908Zm8.861,10.531h-5.908v6.019h5.908Z"/></g></svg>