<svg xmlns="http://www.w3.org/2000/svg" xmlns:xlink="http://www.w3.org/1999/xlink" width="200" height="200" viewBox="0 0 200 200"><defs><style>.a{fill:#fe5a50;}.b{fill:#fff;}.c{filter:url(#a);}</style><filter id="a" x="0" y="0" width="200" height="200" filterUnits="userSpaceOnUse"><feOffset dy="8" input="SourceAlpha"/><feGaussianBlur stdDeviation="12.5" result="b"/><feFlood flood-color="#fe5a50" flood-opacity="0.42"/><feComposite operator="in" in2="b"/><feComposite in="SourceGraphic"/></filter></defs><g transform="translate(-192.5 -1692.5)"><g class="c" transform="matrix(1, 0, 0, 1, 192.5, 1692.5)"><rect class="a" width="125" height="125" rx="25" transform="translate(37.5 29.5)"/></g><path class="b" d="M323.517,1774.4a1.492,1.492,0,0,0-1.477,1.5V1809a5.964,5.964,0,0,1-5.908,6.018H268.87a5.964,5.964,0,0,1-5.908-6.018v-48.146a5.964,5.964,0,0,1,5.908-6.019h32.492a1.5,1.5,0,0,0,0-3.009H268.87a8.946,8.946,0,0,0-8.862,9.028V1809a8.946,8.946,0,0,0,8.862,9.028h47.262a8.945,8.945,0,0,0,8.862-9.028v-33.1A1.492,1.492,0,0,0,323.517,1774.4Zm-42.43,16.551h5.507v5.61l-6.646,1.161Zm29.392-30.715,6.266,6.383-27.2,27.707v-6.384h-6.265Zm4-4.073a4.375,4.375,0,0,1,3.133-1.323,4.474,4.474,0,0,1,4.431,4.515,4.545,4.545,0,0,1-1.3,3.192l-1.91,1.944-6.265-6.383Zm-38.221,45.32,12.606-2.2,33.97-34.605a7.571,7.571,0,0,0,2.163-5.32,7.455,7.455,0,0,0-7.385-7.524,7.287,7.287,0,0,0-5.221,2.2l-33.969,34.6Z"/></g></svg>