<svg xmlns="http://www.w3.org/2000/svg" xmlns:xlink="http://www.w3.org/1999/xlink" width="200" height="200" viewBox="0 0 200 200"><defs><style>.a{fill:#fe5a50;}.b{fill:#fff;}.c{filter:url(#a);}</style><filter id="a" x="0" y="0" width="200" height="200" filterUnits="userSpaceOnUse"><feOffset dy="8" input="SourceAlpha"/><feGaussianBlur stdDeviation="12.5" result="b"/><feFlood flood-color="#fe5a50" flood-opacity="0.42"/><feComposite operator="in" in2="b"/><feComposite in="SourceGraphic"/></filter></defs><g transform="translate(-1297.5 -1692.5)"><g class="c" transform="matrix(1, 0, 0, 1, 1297.5, 1692.5)"><rect class="a" width="125" height="125" rx="25" transform="translate(37.5 29.5)"/></g><path class="b" d="M1417.425,1794.907a1.463,1.463,0,0,0-2.017.551,1.52,1.52,0,0,0,.54,2.055,1.461,1.461,0,0,0,2.018-.55A1.52,1.52,0,0,0,1417.425,1794.907Zm-19.924-6.972a3.01,3.01,0,1,1,2.954-3.009A2.982,2.982,0,0,1,1397.5,1787.935Zm13.292-4.513H1403.2a5.958,5.958,0,0,0-4.222-4.3v-16.764a1.477,1.477,0,1,0-2.954,0v16.764a6.019,6.019,0,0,0,1.477,11.824,5.914,5.914,0,0,0,5.7-4.513h7.594a1.5,1.5,0,0,0,0-3.009Zm-13.292,31.6c-16.314,0-29.539-13.472-29.539-30.091s13.224-30.092,29.539-30.092,29.539,13.472,29.539,30.092S1413.815,1815.018,1397.5,1815.018Zm0-63.193c-17.945,0-32.493,14.821-32.493,33.1s14.547,33.1,32.493,33.1,32.492-14.82,32.492-33.1S1415.446,1751.825,1397.5,1751.825Zm18.447,20.514a1.521,1.521,0,0,0-.54,2.055,1.461,1.461,0,0,0,2.017.551,1.519,1.519,0,0,0,.541-2.055A1.462,1.462,0,0,0,1415.948,1772.339Zm-8.109,30.831a1.518,1.518,0,0,0-.541,2.054,1.462,1.462,0,0,0,2.018.552,1.521,1.521,0,0,0,.541-2.056A1.463,1.463,0,0,0,1407.839,1803.17Zm11.816-19.748a1.5,1.5,0,1,0,1.477,1.5A1.491,1.491,0,0,0,1419.655,1783.422Zm-32.493,19.748a1.463,1.463,0,0,0-2.018.549,1.521,1.521,0,0,0,.541,2.056,1.462,1.462,0,0,0,2.018-.552A1.518,1.518,0,0,0,1387.162,1803.17Zm-9.586-8.262a1.52,1.52,0,0,0-.541,2.056,1.461,1.461,0,0,0,2.017.55,1.519,1.519,0,0,0,.54-2.055A1.463,1.463,0,0,0,1377.577,1794.907Zm1.477-22.569a1.462,1.462,0,0,0-2.017.551,1.519,1.519,0,0,0,.541,2.055,1.461,1.461,0,0,0,2.017-.551A1.52,1.52,0,0,0,1379.053,1772.339Zm-3.707,11.083a1.5,1.5,0,1,0,1.477,1.5A1.491,1.491,0,0,0,1375.347,1783.422Zm22.154,22.569a1.5,1.5,0,1,0,1.477,1.5A1.491,1.491,0,0,0,1397.5,1805.99Zm10.338-39.306a1.463,1.463,0,0,0,2.018-.551,1.522,1.522,0,0,0-.541-2.056,1.464,1.464,0,0,0-2.018.551A1.521,1.521,0,0,0,1407.839,1766.685Zm-22.154-2.607a1.522,1.522,0,0,0-.541,2.056,1.463,1.463,0,0,0,2.018.551,1.521,1.521,0,0,0,.541-2.056A1.464,1.464,0,0,0,1385.686,1764.078Z"/></g></svg>