<svg xmlns="http://www.w3.org/2000/svg" width="21.875" height="25" viewBox="0 0 21.875 25">
  <path id="paper_3" d="M-126.472,479.493a3.134,3.134,0,0,1-3.126-3.125V459.181a3.134,3.134,0,0,1,3.126-3.125h1.984a3.12,3.12,0,0,1,2.7-1.563h6.25a3.12,3.12,0,0,1,2.7,1.563h1.984a3.134,3.134,0,0,1,3.125,3.125v17.187a3.134,3.134,0,0,1-3.125,3.125Zm0-3.125h15.625V459.181h-1.563a3.134,3.134,0,0,1-3.125,3.125h-6.25a3.135,3.135,0,0,1-3.125-3.125h-1.562Zm4.686-17.187h6.25v-1.563h-6.25Zm0,14.063a1.563,1.563,0,0,1-1.562-1.562,1.563,1.563,0,0,1,1.562-1.563h3.126a1.563,1.563,0,0,1,1.562,1.563,1.563,1.563,0,0,1-1.562,1.562Zm0-4.687a1.563,1.563,0,0,1-1.562-1.563,1.562,1.562,0,0,1,1.562-1.562h6.25a1.561,1.561,0,0,1,1.562,1.562,1.563,1.563,0,0,1-1.562,1.563Z" transform="translate(129.597 -454.493)" fill="#c3cbd3"/>
</svg>
