<svg xmlns="http://www.w3.org/2000/svg" width="24.976" height="25" viewBox="0 0 24.976 25">
  <path id="pen_2" d="M-87.89,472.03a1.562,1.562,0,0,1-1.561-1.563V448.592a1.562,1.562,0,0,1,1.561-1.562h9.366a1.563,1.563,0,0,1,1.562,1.562,1.563,1.563,0,0,1-1.562,1.562h-7.8v18.751H-67.6v-7.814a1.562,1.562,0,0,1,1.562-1.561,1.561,1.561,0,0,1,1.561,1.561v9.375a1.561,1.561,0,0,1-1.561,1.563Zm7.806-6.25a3.123,3.123,0,0,1-3.122-3.125v-1.563a3.126,3.126,0,0,1,.913-2.209l10.927-10.938a3.114,3.114,0,0,1,2.209-.915,3.108,3.108,0,0,1,2.207.915l1.561,1.562a3.124,3.124,0,0,1,0,4.419l-10.926,10.939a3.121,3.121,0,0,1-2.208.914Zm0-4.688v1.563h1.561L-67.6,451.717l-1.561-1.562Z" transform="translate(89.451 -447.03)" fill="#c3cbd3"/>
</svg>
