<svg xmlns="http://www.w3.org/2000/svg" width="25" height="25" viewBox="0 0 25 25">
  <path id="settings_2" d="M-143.33,438.573H-154.56a1.567,1.567,0,0,1-1.562-1.562,1.567,1.567,0,0,1,1.562-1.562h11.229a4.662,4.662,0,0,1,4.4-3.125,4.658,4.658,0,0,1,4.395,3.125h1.855a1.567,1.567,0,0,1,1.563,1.562,1.568,1.568,0,0,1-1.563,1.562h-1.855a4.66,4.66,0,0,1-4.395,3.126A4.664,4.664,0,0,1-143.33,438.573Zm2.833-1.562a1.567,1.567,0,0,0,1.562,1.562,1.567,1.567,0,0,0,1.562-1.562,1.567,1.567,0,0,0-1.562-1.562A1.567,1.567,0,0,0-140.5,437.01ZM-152.7,430.76h-1.855a1.567,1.567,0,0,1-1.562-1.561,1.567,1.567,0,0,1,1.562-1.563h1.855a4.661,4.661,0,0,1,4.395-3.125,4.659,4.659,0,0,1,4.395,3.125h11.23a1.567,1.567,0,0,1,1.563,1.563,1.567,1.567,0,0,1-1.563,1.561h-10.937a1.414,1.414,0,0,1-.269-.055,4.666,4.666,0,0,1-4.419,3.18A4.661,4.661,0,0,1-152.7,430.76Zm2.833-1.561a1.566,1.566,0,0,0,1.561,1.561,1.567,1.567,0,0,0,1.563-1.561,1.567,1.567,0,0,0-1.563-1.563A1.567,1.567,0,0,0-149.872,429.2Zm6.541-6.25H-154.56a1.567,1.567,0,0,1-1.562-1.562,1.568,1.568,0,0,1,1.562-1.563h11.229a4.662,4.662,0,0,1,4.4-3.124,4.658,4.658,0,0,1,4.395,3.124h1.855a1.568,1.568,0,0,1,1.563,1.563,1.568,1.568,0,0,1-1.563,1.562h-1.855a4.659,4.659,0,0,1-4.395,3.125A4.663,4.663,0,0,1-143.33,422.948Zm2.833-1.562a1.567,1.567,0,0,0,1.562,1.562,1.567,1.567,0,0,0,1.562-1.562,1.568,1.568,0,0,0-1.562-1.563A1.568,1.568,0,0,0-140.5,421.385Z" transform="translate(156.122 -416.698)" fill="#fe5a50"/>
</svg>
