<svg xmlns="http://www.w3.org/2000/svg" width="25" height="24.999" viewBox="0 0 25 24.999">
  <path id="time_1" d="M-117.114,395.257a12.514,12.514,0,0,1,12.5-12.5,12.513,12.513,0,0,1,12.5,12.5,12.514,12.514,0,0,1-12.5,12.5A12.515,12.515,0,0,1-117.114,395.257Zm3.126,0a9.375,9.375,0,0,0,9.374,9.376,9.375,9.375,0,0,0,9.375-9.376,9.375,9.375,0,0,0-9.375-9.374A9.375,9.375,0,0,0-113.989,395.257Zm9.374,1.563a1.562,1.562,0,0,1-1.562-1.563V390.57a1.561,1.561,0,0,1,1.562-1.562,1.563,1.563,0,0,1,1.563,1.562V393.7h3.125a1.563,1.563,0,0,1,1.562,1.562,1.563,1.563,0,0,1-1.562,1.563Z" transform="translate(117.114 -382.758)" fill="#c3cbd3"/>
</svg>
